STARTFONT 2.1 
COMMENT =========================================================================
COMMENT Created with Raster Font Editor v0.14, ©2005-2013 CyLog Software
COMMENT =========================================================================
FONT TextGame
SIZE 11 96 96
FONTBOUNDINGBOX 6 11 0 -1
STARTPROPERTIES 15
FONTNAME_REGISTRY ""
FOUNDRY ""
FAMILY_NAME "TextGame"
WEIGHT_NAME "Normal"
SLANT "R"
SETWIDTH_NAME "Normal"
ADD_STYLE_NAME "Regular"
PIXEL_SIZE 11
CHARSET_REGISTRY "ISO8859"
CHARSET_ENCODING "1"
FONT_ASCENT 10
FONT_DESCENT 1
DEFAULT_CHAR 32
COPYRIGHT ""
FACE_NAME "TextGame"
ENDPROPERTIES
CHARS 114
STARTCHAR 0
ENCODING 32
SWIDTH 6000 0
DWIDTH 6 0
BBX 6 11 0 -1
BITMAP
00
00
00
00
00
00
00
00
00
00
00
ENDCHAR
STARTCHAR 1
ENCODING 33
SWIDTH 6000 0
DWIDTH 6 0
BBX 6 11 0 -1
BITMAP
00
80
80
80
80
80
80
00
80
00
00
ENDCHAR
STARTCHAR 2
ENCODING 34
SWIDTH 6000 0
DWIDTH 6 0
BBX 6 11 0 -1
BITMAP
00
A0
A0
00
00
00
00
00
00
00
00
ENDCHAR
STARTCHAR 3
ENCODING 35
SWIDTH 6000 0
DWIDTH 6 0
BBX 6 11 0 -1
BITMAP
00
00
00
50
F8
50
F8
50
00
00
00
ENDCHAR
STARTCHAR 4
ENCODING 36
SWIDTH 6000 0
DWIDTH 6 0
BBX 6 11 0 -1
BITMAP
00
20
70
A8
A0
70
28
A8
70
20
00
ENDCHAR
STARTCHAR 5
ENCODING 37
SWIDTH 6000 0
DWIDTH 6 0
BBX 6 11 0 -1
BITMAP
00
00
40
A8
50
20
50
A8
10
00
00
ENDCHAR
STARTCHAR 6
ENCODING 38
SWIDTH 6000 0
DWIDTH 6 0
BBX 6 11 0 -1
BITMAP
00
60
90
90
60
A8
90
90
68
00
00
ENDCHAR
STARTCHAR 7
ENCODING 39
SWIDTH 6000 0
DWIDTH 6 0
BBX 6 11 0 -1
BITMAP
00
80
80
00
00
00
00
00
00
00
00
ENDCHAR
STARTCHAR 8
ENCODING 40
SWIDTH 6000 0
DWIDTH 6 0
BBX 6 11 0 -1
BITMAP
00
40
80
80
80
80
80
80
40
00
00
ENDCHAR
STARTCHAR 9
ENCODING 41
SWIDTH 6000 0
DWIDTH 6 0
BBX 6 11 0 -1
BITMAP
00
80
40
40
40
40
40
40
80
00
00
ENDCHAR
STARTCHAR 10
ENCODING 42
SWIDTH 6000 0
DWIDTH 6 0
BBX 6 11 0 -1
BITMAP
00
00
00
00
A0
40
A0
00
00
00
00
ENDCHAR
STARTCHAR 11
ENCODING 43
SWIDTH 6000 0
DWIDTH 6 0
BBX 6 11 0 -1
BITMAP
00
00
00
20
20
F8
20
20
00
00
00
ENDCHAR
STARTCHAR 12
ENCODING 44
SWIDTH 6000 0
DWIDTH 6 0
BBX 6 11 0 -1
BITMAP
00
00
00
00
00
00
00
00
40
80
00
ENDCHAR
STARTCHAR 13
ENCODING 45
SWIDTH 6000 0
DWIDTH 6 0
BBX 6 11 0 -1
BITMAP
00
00
00
00
00
F8
00
00
00
00
00
ENDCHAR
STARTCHAR 14
ENCODING 46
SWIDTH 6000 0
DWIDTH 6 0
BBX 6 11 0 -1
BITMAP
00
00
00
00
00
00
00
00
80
00
00
ENDCHAR
STARTCHAR 15
ENCODING 47
SWIDTH 6000 0
DWIDTH 6 0
BBX 6 11 0 -1
BITMAP
00
10
10
20
20
40
40
80
80
00
00
ENDCHAR
STARTCHAR 16
ENCODING 48
SWIDTH 6000 0
DWIDTH 6 0
BBX 6 11 0 -1
BITMAP
00
70
88
88
98
A8
C8
88
70
00
00
ENDCHAR
STARTCHAR 17
ENCODING 49
SWIDTH 6000 0
DWIDTH 6 0
BBX 6 11 0 -1
BITMAP
00
20
60
A0
20
20
20
20
20
00
00
ENDCHAR
STARTCHAR 18
ENCODING 50
SWIDTH 6000 0
DWIDTH 6 0
BBX 6 11 0 -1
BITMAP
00
70
88
08
70
80
80
80
F8
00
00
ENDCHAR
STARTCHAR 19
ENCODING 51
SWIDTH 6000 0
DWIDTH 6 0
BBX 6 11 0 -1
BITMAP
00
70
88
08
30
08
08
88
70
00
00
ENDCHAR
STARTCHAR 20
ENCODING 52
SWIDTH 6000 0
DWIDTH 6 0
BBX 6 11 0 -1
BITMAP
00
10
30
50
90
90
F8
10
10
00
00
ENDCHAR
STARTCHAR 21
ENCODING 53
SWIDTH 6000 0
DWIDTH 6 0
BBX 6 11 0 -1
BITMAP
00
F8
80
80
F0
08
08
88
70
00
00
ENDCHAR
STARTCHAR 22
ENCODING 54
SWIDTH 6000 0
DWIDTH 6 0
BBX 6 11 0 -1
BITMAP
00
70
88
80
F0
88
88
88
70
00
00
ENDCHAR
STARTCHAR 23
ENCODING 55
SWIDTH 6000 0
DWIDTH 6 0
BBX 6 11 0 -1
BITMAP
00
F8
08
08
10
20
40
40
40
00
00
ENDCHAR
STARTCHAR 24
ENCODING 56
SWIDTH 6000 0
DWIDTH 6 0
BBX 6 11 0 -1
BITMAP
00
70
88
88
70
88
88
88
70
00
00
ENDCHAR
STARTCHAR 25
ENCODING 57
SWIDTH 6000 0
DWIDTH 6 0
BBX 6 11 0 -1
BITMAP
00
70
88
88
88
78
08
88
70
00
00
ENDCHAR
STARTCHAR 26
ENCODING 58
SWIDTH 6000 0
DWIDTH 6 0
BBX 6 11 0 -1
BITMAP
00
00
00
00
80
00
00
00
80
00
00
ENDCHAR
STARTCHAR 27
ENCODING 59
SWIDTH 6000 0
DWIDTH 6 0
BBX 6 11 0 -1
BITMAP
00
00
00
00
40
00
00
00
40
80
00
ENDCHAR
STARTCHAR 28
ENCODING 60
SWIDTH 6000 0
DWIDTH 6 0
BBX 6 11 0 -1
BITMAP
00
00
10
20
40
80
40
20
10
00
00
ENDCHAR
STARTCHAR 29
ENCODING 61
SWIDTH 6000 0
DWIDTH 6 0
BBX 6 11 0 -1
BITMAP
00
00
00
00
F8
00
F8
00
00
00
00
ENDCHAR
STARTCHAR 30
ENCODING 62
SWIDTH 6000 0
DWIDTH 6 0
BBX 6 11 0 -1
BITMAP
00
00
80
40
20
10
20
40
80
00
00
ENDCHAR
STARTCHAR 31
ENCODING 63
SWIDTH 6000 0
DWIDTH 6 0
BBX 6 11 0 -1
BITMAP
00
70
88
08
08
10
20
00
20
00
00
ENDCHAR
STARTCHAR 32
ENCODING 64
SWIDTH 6000 0
DWIDTH 6 0
BBX 6 11 0 -1
BITMAP
00
70
88
88
98
A8
B8
80
78
00
00
ENDCHAR
STARTCHAR 33
ENCODING 65
SWIDTH 6000 0
DWIDTH 6 0
BBX 6 11 0 -1
BITMAP
00
70
88
88
88
F8
88
88
88
00
00
ENDCHAR
STARTCHAR 34
ENCODING 66
SWIDTH 6000 0
DWIDTH 6 0
BBX 6 11 0 -1
BITMAP
00
F0
88
88
F0
88
88
88
F0
00
00
ENDCHAR
STARTCHAR 35
ENCODING 67
SWIDTH 6000 0
DWIDTH 6 0
BBX 6 11 0 -1
BITMAP
00
70
88
80
80
80
80
88
70
00
00
ENDCHAR
STARTCHAR 36
ENCODING 68
SWIDTH 6000 0
DWIDTH 6 0
BBX 6 11 0 -1
BITMAP
00
F0
88
88
88
88
88
88
F0
00
00
ENDCHAR
STARTCHAR 37
ENCODING 69
SWIDTH 6000 0
DWIDTH 6 0
BBX 6 11 0 -1
BITMAP
00
F8
80
80
F0
80
80
80
F8
00
00
ENDCHAR
STARTCHAR 38
ENCODING 70
SWIDTH 6000 0
DWIDTH 6 0
BBX 6 11 0 -1
BITMAP
00
F8
80
80
F0
80
80
80
80
00
00
ENDCHAR
STARTCHAR 39
ENCODING 71
SWIDTH 6000 0
DWIDTH 6 0
BBX 6 11 0 -1
BITMAP
00
70
88
80
80
98
88
88
78
00
00
ENDCHAR
STARTCHAR 40
ENCODING 72
SWIDTH 6000 0
DWIDTH 6 0
BBX 6 11 0 -1
BITMAP
00
88
88
88
F8
88
88
88
88
00
00
ENDCHAR
STARTCHAR 41
ENCODING 73
SWIDTH 6000 0
DWIDTH 6 0
BBX 6 11 0 -1
BITMAP
00
80
80
80
80
80
80
80
80
00
00
ENDCHAR
STARTCHAR 42
ENCODING 74
SWIDTH 6000 0
DWIDTH 6 0
BBX 6 11 0 -1
BITMAP
00
08
08
08
08
08
08
88
70
00
00
ENDCHAR
STARTCHAR 43
ENCODING 75
SWIDTH 6000 0
DWIDTH 6 0
BBX 6 11 0 -1
BITMAP
00
88
90
A0
C0
A0
90
88
88
00
00
ENDCHAR
STARTCHAR 44
ENCODING 76
SWIDTH 6000 0
DWIDTH 6 0
BBX 6 11 0 -1
BITMAP
00
80
80
80
80
80
80
80
F8
00
00
ENDCHAR
STARTCHAR 45
ENCODING 77
SWIDTH 6000 0
DWIDTH 6 0
BBX 6 11 0 -1
BITMAP
00
88
D8
A8
88
88
88
88
88
00
00
ENDCHAR
STARTCHAR 46
ENCODING 78
SWIDTH 6000 0
DWIDTH 6 0
BBX 6 11 0 -1
BITMAP
00
88
C8
A8
98
88
88
88
88
00
00
ENDCHAR
STARTCHAR 47
ENCODING 79
SWIDTH 6000 0
DWIDTH 6 0
BBX 6 11 0 -1
BITMAP
00
70
88
88
88
88
88
88
70
00
00
ENDCHAR
STARTCHAR 48
ENCODING 80
SWIDTH 6000 0
DWIDTH 6 0
BBX 6 11 0 -1
BITMAP
00
F0
88
88
88
F0
80
80
80
00
00
ENDCHAR
STARTCHAR 49
ENCODING 81
SWIDTH 6000 0
DWIDTH 6 0
BBX 6 11 0 -1
BITMAP
00
70
88
88
88
88
A8
90
68
00
00
ENDCHAR
STARTCHAR 50
ENCODING 82
SWIDTH 6000 0
DWIDTH 6 0
BBX 6 11 0 -1
BITMAP
00
F0
88
88
88
F0
88
88
88
00
00
ENDCHAR
STARTCHAR 51
ENCODING 83
SWIDTH 6000 0
DWIDTH 6 0
BBX 6 11 0 -1
BITMAP
00
78
80
80
70
08
08
08
F0
00
00
ENDCHAR
STARTCHAR 52
ENCODING 84
SWIDTH 6000 0
DWIDTH 6 0
BBX 6 11 0 -1
BITMAP
00
F8
20
20
20
20
20
20
20
00
00
ENDCHAR
STARTCHAR 53
ENCODING 85
SWIDTH 6000 0
DWIDTH 6 0
BBX 6 11 0 -1
BITMAP
00
88
88
88
88
88
88
88
70
00
00
ENDCHAR
STARTCHAR 54
ENCODING 86
SWIDTH 6000 0
DWIDTH 6 0
BBX 6 11 0 -1
BITMAP
00
88
88
88
88
50
50
20
20
00
00
ENDCHAR
STARTCHAR 55
ENCODING 87
SWIDTH 6000 0
DWIDTH 6 0
BBX 6 11 0 -1
BITMAP
00
88
88
88
88
A8
A8
A8
50
00
00
ENDCHAR
STARTCHAR 56
ENCODING 88
SWIDTH 6000 0
DWIDTH 6 0
BBX 6 11 0 -1
BITMAP
00
88
88
50
20
50
88
88
88
00
00
ENDCHAR
STARTCHAR 57
ENCODING 89
SWIDTH 6000 0
DWIDTH 6 0
BBX 6 11 0 -1
BITMAP
00
88
88
88
50
20
20
20
20
00
00
ENDCHAR
STARTCHAR 58
ENCODING 90
SWIDTH 6000 0
DWIDTH 6 0
BBX 6 11 0 -1
BITMAP
00
F8
08
10
20
40
80
80
F8
00
00
ENDCHAR
STARTCHAR 59
ENCODING 91
SWIDTH 6000 0
DWIDTH 6 0
BBX 6 11 0 -1
BITMAP
00
C0
80
80
80
80
80
80
C0
00
00
ENDCHAR
STARTCHAR 60
ENCODING 92
SWIDTH 6000 0
DWIDTH 6 0
BBX 6 11 0 -1
BITMAP
00
80
80
40
40
20
20
10
10
00
00
ENDCHAR
STARTCHAR 61
ENCODING 93
SWIDTH 6000 0
DWIDTH 6 0
BBX 6 11 0 -1
BITMAP
00
C0
40
40
40
40
40
40
C0
00
00
ENDCHAR
STARTCHAR 62
ENCODING 94
SWIDTH 6000 0
DWIDTH 6 0
BBX 6 11 0 -1
BITMAP
00
20
50
88
00
00
00
00
00
00
00
ENDCHAR
STARTCHAR 63
ENCODING 95
SWIDTH 6000 0
DWIDTH 6 0
BBX 6 11 0 -1
BITMAP
00
00
00
00
00
00
00
00
00
F8
00
ENDCHAR
STARTCHAR 64
ENCODING 96
SWIDTH 6000 0
DWIDTH 6 0
BBX 6 11 0 -1
BITMAP
00
80
40
00
00
00
00
00
00
00
00
ENDCHAR
STARTCHAR 65
ENCODING 97
SWIDTH 6000 0
DWIDTH 6 0
BBX 6 11 0 -1
BITMAP
00
00
00
00
70
08
78
88
78
00
00
ENDCHAR
STARTCHAR 66
ENCODING 98
SWIDTH 6000 0
DWIDTH 6 0
BBX 6 11 0 -1
BITMAP
00
80
80
80
F0
88
88
88
F0
00
00
ENDCHAR
STARTCHAR 67
ENCODING 99
SWIDTH 6000 0
DWIDTH 6 0
BBX 6 11 0 -1
BITMAP
00
00
00
00
78
80
80
80
78
00
00
ENDCHAR
STARTCHAR 68
ENCODING 100
SWIDTH 6000 0
DWIDTH 6 0
BBX 6 11 0 -1
BITMAP
00
08
08
08
78
88
88
88
78
00
00
ENDCHAR
STARTCHAR 69
ENCODING 101
SWIDTH 6000 0
DWIDTH 6 0
BBX 6 11 0 -1
BITMAP
00
00
00
00
70
88
F8
80
78
00
00
ENDCHAR
STARTCHAR 70
ENCODING 102
SWIDTH 6000 0
DWIDTH 6 0
BBX 6 11 0 -1
BITMAP
00
60
80
80
E0
80
80
80
80
00
00
ENDCHAR
STARTCHAR 71
ENCODING 103
SWIDTH 6000 0
DWIDTH 6 0
BBX 6 11 0 -1
BITMAP
00
00
00
00
78
88
88
88
78
08
F0
ENDCHAR
STARTCHAR 72
ENCODING 104
SWIDTH 6000 0
DWIDTH 6 0
BBX 6 11 0 -1
BITMAP
00
80
80
80
F0
88
88
88
88
00
00
ENDCHAR
STARTCHAR 73
ENCODING 105
SWIDTH 6000 0
DWIDTH 6 0
BBX 6 11 0 -1
BITMAP
00
00
40
00
C0
40
40
40
40
00
00
ENDCHAR
STARTCHAR 74
ENCODING 106
SWIDTH 6000 0
DWIDTH 6 0
BBX 6 11 0 -1
BITMAP
00
00
20
00
60
20
20
20
20
20
C0
ENDCHAR
STARTCHAR 75
ENCODING 107
SWIDTH 6000 0
DWIDTH 6 0
BBX 6 11 0 -1
BITMAP
00
80
80
80
90
A0
C0
A0
90
00
00
ENDCHAR
STARTCHAR 76
ENCODING 108
SWIDTH 6000 0
DWIDTH 6 0
BBX 6 11 0 -1
BITMAP
00
C0
40
40
40
40
40
40
40
00
00
ENDCHAR
STARTCHAR 77
ENCODING 109
SWIDTH 6000 0
DWIDTH 6 0
BBX 6 11 0 -1
BITMAP
00
00
00
00
F0
A8
A8
A8
A8
00
00
ENDCHAR
STARTCHAR 78
ENCODING 110
SWIDTH 6000 0
DWIDTH 6 0
BBX 6 11 0 -1
BITMAP
00
00
00
00
F0
88
88
88
88
00
00
ENDCHAR
STARTCHAR 79
ENCODING 111
SWIDTH 6000 0
DWIDTH 6 0
BBX 6 11 0 -1
BITMAP
00
00
00
00
70
88
88
88
70
00
00
ENDCHAR
STARTCHAR 80
ENCODING 112
SWIDTH 6000 0
DWIDTH 6 0
BBX 6 11 0 -1
BITMAP
00
00
00
00
F0
88
88
88
F0
80
80
ENDCHAR
STARTCHAR 81
ENCODING 113
SWIDTH 6000 0
DWIDTH 6 0
BBX 6 11 0 -1
BITMAP
00
00
00
00
78
88
88
88
78
08
08
ENDCHAR
STARTCHAR 82
ENCODING 114
SWIDTH 6000 0
DWIDTH 6 0
BBX 6 11 0 -1
BITMAP
00
00
00
00
B8
C0
80
80
80
00
00
ENDCHAR
STARTCHAR 83
ENCODING 115
SWIDTH 6000 0
DWIDTH 6 0
BBX 6 11 0 -1
BITMAP
00
00
00
00
70
80
70
08
F0
00
00
ENDCHAR
STARTCHAR 84
ENCODING 116
SWIDTH 6000 0
DWIDTH 6 0
BBX 6 11 0 -1
BITMAP
00
80
80
80
E0
80
80
80
60
00
00
ENDCHAR
STARTCHAR 85
ENCODING 117
SWIDTH 6000 0
DWIDTH 6 0
BBX 6 11 0 -1
BITMAP
00
00
00
00
88
88
88
88
78
00
00
ENDCHAR
STARTCHAR 86
ENCODING 118
SWIDTH 6000 0
DWIDTH 6 0
BBX 6 11 0 -1
BITMAP
00
00
00
00
88
88
88
50
20
00
00
ENDCHAR
STARTCHAR 87
ENCODING 119
SWIDTH 6000 0
DWIDTH 6 0
BBX 6 11 0 -1
BITMAP
00
00
00
00
88
88
A8
A8
50
00
00
ENDCHAR
STARTCHAR 88
ENCODING 120
SWIDTH 6000 0
DWIDTH 6 0
BBX 6 11 0 -1
BITMAP
00
00
00
00
88
50
20
50
88
00
00
ENDCHAR
STARTCHAR 89
ENCODING 121
SWIDTH 6000 0
DWIDTH 6 0
BBX 6 11 0 -1
BITMAP
00
00
00
00
88
88
88
88
78
08
F0
ENDCHAR
STARTCHAR 90
ENCODING 122
SWIDTH 6000 0
DWIDTH 6 0
BBX 6 11 0 -1
BITMAP
00
00
00
00
F8
10
20
40
F8
00
00
ENDCHAR
STARTCHAR 91
ENCODING 123
SWIDTH 6000 0
DWIDTH 6 0
BBX 6 11 0 -1
BITMAP
00
20
40
40
40
80
40
40
40
20
00
ENDCHAR
STARTCHAR 92
ENCODING 124
SWIDTH 6000 0
DWIDTH 6 0
BBX 6 11 0 -1
BITMAP
00
80
80
80
80
00
80
80
80
80
00
ENDCHAR
STARTCHAR 93
ENCODING 125
SWIDTH 6000 0
DWIDTH 6 0
BBX 6 11 0 -1
BITMAP
00
80
40
40
40
20
40
40
40
80
00
ENDCHAR
STARTCHAR 94
ENCODING 126
SWIDTH 6000 0
DWIDTH 6 0
BBX 6 11 0 -1
BITMAP
00
50
A0
00
00
00
00
00
00
00
00
ENDCHAR
STARTCHAR 95
ENCODING 127
SWIDTH 6000 0
DWIDTH 6 0
BBX 6 11 0 -1
BITMAP
00
00
00
00
00
00
00
00
00
00
00
ENDCHAR
STARTCHAR 96
ENCODING 128
SWIDTH 6000 0
DWIDTH 6 0
BBX 6 11 0 -1
BITMAP
00
48
90
D8
00
00
00
00
00
00
00
ENDCHAR
STARTCHAR 97
ENCODING 129
SWIDTH 6000 0
DWIDTH 6 0
BBX 6 11 0 -1
BITMAP
00
D8
48
90
00
00
00
00
00
00
00
ENDCHAR
STARTCHAR 98
ENCODING 130
SWIDTH 6000 0
DWIDTH 6 0
BBX 6 11 0 -1
BITMAP
00
40
80
C0
00
00
00
00
00
00
00
ENDCHAR
STARTCHAR 99
ENCODING 131
SWIDTH 6000 0
DWIDTH 6 0
BBX 6 11 0 -1
BITMAP
00
C0
40
80
00
00
00
00
00
00
00
ENDCHAR
STARTCHAR 100
ENCODING 132
SWIDTH 6000 0
DWIDTH 6 0
BBX 6 11 0 -1
BITMAP
00
00
00
00
00
F8
00
00
00
00
00
ENDCHAR
STARTCHAR 101
ENCODING 133
SWIDTH 6000 0
DWIDTH 6 0
BBX 6 11 0 -1
BITMAP
00
00
50
00
70
88
88
88
70
00
00
ENDCHAR
STARTCHAR 102
ENCODING 134
SWIDTH 6000 0
DWIDTH 6 0
BBX 6 11 0 -1
BITMAP
00
40
20
00
70
08
78
88
78
00
00
ENDCHAR
STARTCHAR 103
ENCODING 135
SWIDTH 6000 0
DWIDTH 6 0
BBX 6 11 0 -1
BITMAP
00
10
20
00
70
08
78
88
78
00
00
ENDCHAR
STARTCHAR 104
ENCODING 136
SWIDTH 6000 0
DWIDTH 6 0
BBX 6 11 0 -1
BITMAP
00
20
50
00
70
08
78
88
78
00
00
ENDCHAR
STARTCHAR 105
ENCODING 137
SWIDTH 6000 0
DWIDTH 6 0
BBX 6 11 0 -1
BITMAP
00
40
20
00
70
88
F8
80
78
00
00
ENDCHAR
STARTCHAR 106
ENCODING 138
SWIDTH 6000 0
DWIDTH 6 0
BBX 6 11 0 -1
BITMAP
00
10
20
00
70
88
F8
80
78
00
00
ENDCHAR
STARTCHAR 107
ENCODING 139
SWIDTH 6000 0
DWIDTH 6 0
BBX 6 11 0 -1
BITMAP
00
20
50
00
70
88
F8
80
78
00
00
ENDCHAR
STARTCHAR 108
ENCODING 140
SWIDTH 6000 0
DWIDTH 6 0
BBX 6 11 0 -1
BITMAP
00
3C
40
4C
50
5C
50
50
40
3C
00
ENDCHAR
STARTCHAR 109
ENCODING 141
SWIDTH 6000 0
DWIDTH 6 0
BBX 6 11 0 -1
BITMAP
00
C0
20
20
A0
A0
A0
A0
20
C0
00
ENDCHAR
STARTCHAR 110
ENCODING 142
SWIDTH 6000 0
DWIDTH 6 0
BBX 6 11 0 -1
BITMAP
00
3C
40
5C
50
5C
50
5C
40
3C
00
ENDCHAR
STARTCHAR 111
ENCODING 143
SWIDTH 6000 0
DWIDTH 6 0
BBX 6 11 0 -1
BITMAP
00
C0
20
20
A0
20
A0
20
20
C0
00
ENDCHAR
STARTCHAR 112
ENCODING 144
SWIDTH 6000 0
DWIDTH 6 0
BBX 6 11 0 -1
BITMAP
00
3C
40
4C
50
50
50
4C
40
3C
00
ENDCHAR
STARTCHAR 113
ENCODING 145
SWIDTH 6000 0
DWIDTH 6 0
BBX 6 11 0 -1
BITMAP
00
C0
20
20
A0
20
A0
20
20
C0
00
ENDCHAR
ENDFONT
